# xmcd
#
# Track frame offsets:
#  182
#  10080
#  21310
#  35380
#  49217
#  58932
#  71987
#  89832
#  100795
#  111282
#  124672
#  137182
#  154702
#  167377
#  177872
#  194272
#  208215
#  222965
#  234642
#  247345
#  261237
#  270942
#  277435
#  296130
#
# Disc length: 4064 seconds
#
# Revision: 0
# Processed by: cddbd v1.5.1PL2 Copyright (c) Steve Scherf et al.
# Submitted via: Collectorz.com_Music_Collector 6.9
#
DISCID=7e0fde18
DTITLE=Various Artist - Anthology of British blues Vol. 1
DYEAR=1966
DGENRE=Blues
TTITLE0=John Mayall and The Bluesbreakers - I'm Your Witchdoctor
TTITLE1=Eric Clapton - Snake Drive
TTITLE2=T.S. McPhee - Ain't Gonna Cry No More
TTITLE3=Savoy Brown Blues Band - I Tried
TTITLE4=Eric Clapton - Tribute to Elmore
TTITLE5=Jo-Ann Kelly - I feel so good
TTITLE6=John Mayall and The Bluesbreakers - Telephone Blues
TTITLE7=T.S. McPhee - You don't love me
TTITLE8=Eric Clapton - West Coast Idea
TTITLE9=Jo-Ann Kelly - Ain't seen no whisky
TTITLE10=Stone's Masonry - Flapjacks
TTITLE11=Savoy Brown Blues Band - Cold Blooded Woman
TTITLE12=John Mayall and The Bluesbreakers - On Top of the World
TTITLE13=T.S. McPhee - Someone to love me
TTITLE14=Savoy Brown Blues Band - Can't quit you baby
TTITLE15=Eric Clapton and Jimmy Page - Draggin' my tail
TTITLE16=Dealing With the Devil - Dealing with the devil
TTITLE17=Jeremy Spencer - Who's knocking?
TTITLE18=Eric Clapton and Jimmy Page - Freight loader
TTITLE19=Jeremy Spencer - Look down at my woman
TTITLE20=Dharma Blues Band - Roll'em Pete
TTITLE21=Eric Clapton and Jimmy Page - Choker
TTITLE22=Savoy Brown Blues Band - True Blue
TTITLE23=T.S. McPhee - When you got a good friend
EXTD=
EXTT0=
EXTT1=
EXTT2=
EXTT3=
EXTT4=
EXTT5=
EXTT6=
EXTT7=
EXTT8=
EXTT9=
EXTT10=
EXTT11=
EXTT12=
EXTT13=
EXTT14=
EXTT15=
EXTT16=
EXTT17=
EXTT18=
EXTT19=
EXTT20=
EXTT21=
EXTT22=
EXTT23=
PLAYORDER=
